<svg xmlns="http://www.w3.org/2000/svg" xmlns:xlink="http://www.w3.org/1999/xlink" viewBox="0,0,256,256" width="64px" height="64px"><g fill="#515359" fill-rule="nonzero" stroke="none" stroke-width="1" stroke-linecap="butt" stroke-linejoin="miter" stroke-miterlimit="10" stroke-dasharray="" stroke-dashoffset="0" font-family="none" font-weight="none" font-size="none" text-anchor="none" style="mix-blend-mode: normal"><g transform="scale(2,2)"><path d="M32,122h10c1.7,0 3,-1.3 3,-3c0,-1.7 -1.3,-3 -3,-3h-10c-3.9,0 -7,-3.1 -7,-7v-10c0,-1.7 -1.3,-3 -3,-3c-1.7,0 -3,1.3 -3,3v10c0,7.2 5.8,13 13,13zM86,122h10c7.2,0 13,-5.8 13,-13v-10c0,-1.7 -1.3,-3 -3,-3c-1.7,0 -3,1.3 -3,3v10c0,3.9 -3.1,7 -7,7h-10c-1.7,0 -3,1.3 -3,3c0,1.7 1.3,3 3,3zM42,6h-10c-7.2,0 -13,5.8 -13,13v10c0,1.7 1.3,3 3,3c1.7,0 3,-1.3 3,-3v-10c0,-3.9 3.1,-7 7,-7h10c1.7,0 3,-1.3 3,-3c0,-1.7 -1.3,-3 -3,-3zM86,6c-1.7,0 -3,1.3 -3,3c0,0.2 0,0.3 0.1,0.5c-0.1,0.2 -0.1,0.3 -0.1,0.5v9c0,7.2 5.8,13 13,13h9c0.2,0 0.3,0 0.5,-0.1c0.2,0 0.3,0 0.5,0c1.7,0 3,-1.3 3,-3c0,-12.6 -10.3,-22.9 -23,-22.9zM96,26c-3.9,0 -7,-3.1 -7,-7v-6.7c7,1.2 12.5,6.7 13.7,13.7zM39,59c0,1.7 1.3,3 3,3h44c1.7,0 3,-1.3 3,-3c0,-1.7 -1.3,-3 -3,-3h-44c-1.7,0 -3,1.3 -3,3zM89,74c0,-1.7 -1.3,-3 -3,-3h-44c-1.7,0 -3,1.3 -3,3c0,1.7 1.3,3 3,3h44c1.7,0 3,-1.3 3,-3zM69.2,89c0,-1.7 -1.3,-3 -3,-3h-24c-1.7,0 -3,1.3 -3,3c0,1.7 1.3,3 3,3h24c1.7,0 3,-1.3 3,-3z"></path></g></g></svg>